{
    "asset" : {
        "generator" : "Khronos glTF Blender I/O v1.7.33",
        "version" : "2.0"
    },
    "scene" : 0,
    "scenes" : [
        {
            "name" : "Scene",
            "nodes" : [
                0
            ]
        }
    ],
    "nodes" : [
        {
            "mesh" : 0,
            "name" : "Plane",
            "rotation" : [
                0.7071068286895752,
                0,
                0,
                0.7071067094802856
            ],
            "translation" : [
                0,
                2.159574031829834,
                0
            ]
        }
    ],
    "materials" : [
        {
            "doubleSided" : true,
            "name" : "Outsides",
            "pbrMetallicRoughness" : {
                "baseColorFactor" : [
                    1,
                    0,
                    0.00513400137424469,
                    1
                ],
                "metallicFactor" : 0,
                "roughnessFactor" : 0.5
            }
        },
        {
            "doubleSided" : true,
            "name" : "Insides",
            "pbrMetallicRoughness" : {
                "baseColorFactor" : [
                    0.15319347381591797,
                    0.15319347381591797,
                    0.15319347381591797,
                    1
                ],
                "metallicFactor" : 0.9518716335296631,
                "roughnessFactor" : 0.3074866235256195
            }
        }
    ],
    "meshes" : [
        {
            "name" : "Plane.001",
            "primitives" : [
                {
                    "attributes" : {
                        "POSITION" : 0,
                        "NORMAL" : 1,
                        "TEXCOORD_0" : 2
                    },
                    "indices" : 3,
                    "material" : 0
                },
                {
                    "attributes" : {
                        "POSITION" : 4,
                        "NORMAL" : 5,
                        "TEXCOORD_0" : 6
                    },
                    "indices" : 7,
                    "material" : 1
                }
            ]
        }
    ],
    "accessors" : [
        {
            "bufferView" : 0,
            "componentType" : 5126,
            "count" : 4448,
            "max" : [
                1.3311574459075928,
                1.7028900401783176e-05,
                1.9497096538543701
            ],
            "min" : [
                -1.3311575651168823,
                -0.22699998319149017,
                -2.066751480102539
            ],
            "type" : "VEC3"
        },
        {
            "bufferView" : 1,
            "componentType" : 5126,
            "count" : 4448,
            "type" : "VEC3"
        },
        {
            "bufferView" : 2,
            "componentType" : 5126,
            "count" : 4448,
            "type" : "VEC2"
        },
        {
            "bufferView" : 3,
            "componentType" : 5123,
            "count" : 24228,
            "type" : "SCALAR"
        },
        {
            "bufferView" : 4,
            "componentType" : 5126,
            "count" : 392,
            "max" : [
                0.5493248105049133,
                -0.008733756840229034,
                -0.10497349500656128
            ],
            "min" : [
                -0.5493248105049133,
                -0.22699998319149017,
                -1.2057952880859375
            ],
            "type" : "VEC3"
        },
        {
            "bufferView" : 5,
            "componentType" : 5126,
            "count" : 392,
            "type" : "VEC3"
        },
        {
            "bufferView" : 6,
            "componentType" : 5126,
            "count" : 392,
            "type" : "VEC2"
        },
        {
            "bufferView" : 7,
            "componentType" : 5123,
            "count" : 1440,
            "type" : "SCALAR"
        }
    ],
    "bufferViews" : [
        {
            "buffer" : 0,
            "byteLength" : 53376,
            "byteOffset" : 0
        },
        {
            "buffer" : 0,
            "byteLength" : 53376,
            "byteOffset" : 53376
        },
        {
            "buffer" : 0,
            "byteLength" : 35584,
            "byteOffset" : 106752
        },
        {
            "buffer" : 0,
            "byteLength" : 48456,
            "byteOffset" : 142336
        },
        {
            "buffer" : 0,
            "byteLength" : 4704,
            "byteOffset" : 190792
        },
        {
            "buffer" : 0,
            "byteLength" : 4704,
            "byteOffset" : 195496
        },
        {
            "buffer" : 0,
            "byteLength" : 3136,
            "byteOffset" : 200200
        },
        {
            "buffer" : 0,
            "byteLength" : 2880,
            "byteOffset" : 203336
        }
    ],
    "buffers" : [
        {
            "byteLength" : 206216,
            "uri" : "data:application/octet-stream;base64,"
        }
    ]
}
